<?xml version="1.0"?>
<svg xmlns="http://www.w3.org/2000/svg" xmlns:xlink="http://www.w3.org/1999/xlink" version="1.1" id="Capa_1" x="0px" y="0px" viewBox="0 0 512 512" style="enable-background:new 0 0 512 512;" xml:space="preserve" width="512px" height="512px"><g><g>
	<rect x="52.345" y="86.24" width="30.002" height="30" data-original="#000000" class="active-path" data-old_color="#000000" fill="#56B139"/>
	<rect x="102.348" y="86.24" width="30.002" height="30" data-original="#000000" class="active-path" data-old_color="#000000" fill="#56B139"/>
	<rect x="152.352" y="86.24" width="30.002" height="30" data-original="#000000" class="active-path" data-old_color="#000000" fill="#56B139"/>
	<path d="M0,31.588v448.823h512V31.588H0z M482,61.588v80.008H30V61.588H482z M30,450.412V171.596h452v278.815H30z" data-original="#000000" class="active-path" data-old_color="#000000" fill="#56B139"/>
	<rect x="237.981" y="86.24" width="216.02" height="30" data-original="#000000" class="active-path" data-old_color="#000000" fill="#56B139"/>
	<polygon points="213.568,287.399 319.166,352.653 391.942,278.262 391.942,301.979 421.942,301.979 421.942,226.479    346.442,226.479 346.442,256.479 371.284,256.479 314.512,314.51 208.725,249.141 103.145,359.023 103.145,216.272 73.145,216.272    73.145,411.284 426.726,411.284 426.726,381.284 123.359,381.284  " data-original="#000000" class="active-path" data-old_color="#000000" fill="#56B139"/>
</g></g> </svg>
