<?xml version="1.0"?>
<svg xmlns="http://www.w3.org/2000/svg" xmlns:xlink="http://www.w3.org/1999/xlink" version="1.1" id="Layer_1" x="0px" y="0px" viewBox="0 0 512 512" style="enable-background:new 0 0 512 512;" xml:space="preserve" width="512px" height="512px"><g><g>
	<g>
		<path d="M480.466,51.283c-20.334-20.336-47.371-31.534-76.129-31.534s-55.795,11.2-76.13,31.534L94.985,284.505    c-15.06,15.059-23.353,35.083-23.353,56.38s8.293,41.321,23.353,56.38c31.089,31.087,81.674,31.088,112.76,0L412.23,192.781    l-23.614-23.614L184.132,373.65c-18.067,18.067-47.465,18.067-65.533,0c-8.752-8.752-13.572-20.389-13.572-32.766    c0-12.378,4.82-24.015,13.572-32.767l233.22-233.22c14.028-14.027,32.677-21.753,52.517-21.753    c19.837,0,38.487,7.725,52.515,21.753c14.028,14.028,21.753,32.677,21.753,52.515s-7.724,38.488-21.753,52.515L207.795,428.985    c-39.847,39.846-104.684,39.845-144.53,0c-19.303-19.303-29.933-44.967-29.933-72.264c0-27.299,10.631-52.963,29.933-72.266    l220.319-220.32L259.97,40.522L39.651,260.842c-52.868,52.868-52.868,138.891,0,191.758    c26.434,26.435,61.156,39.652,95.879,39.652c34.722,0,69.445-13.217,95.878-39.652l249.057-249.057    C500.801,183.208,512,156.171,512,127.413S500.8,71.617,480.466,51.283z" data-original="#000000" class="active-path" data-old_color="#000000" fill="#A9A9A9"/>
	</g>
</g></g> </svg>
